<?xml version="1.0" encoding="utf-8"?>
<!-- Generator: Adobe Illustrator 24.2.0, SVG Export Plug-In . SVG Version: 6.00 Build 0)  -->
<svg version="1.0" id="Layer_1" xmlns="http://www.w3.org/2000/svg" xmlns:xlink="http://www.w3.org/1999/xlink" x="0px" y="0px"
	 viewBox="0 0 554.7 150.6" style="enable-background:new 0 0 554.7 150.6;" xml:space="preserve">
<style type="text/css">
	.st0{fill:#0E2B4C;}
	.st1{fill:#FFFFFF;}
</style>
<g>
	<g>
		<rect class="st0" width="150.6" height="150.6"/>
		<g>
			<g>
				<path class="st1" d="M46.1,88.5l-0.3,0.4c-0.4,0.5-1,1.1-1.8,1.7c-0.7,0.6-1.6,1.1-2.6,1.6c-1,0.5-2.1,0.8-3.3,1.2
					c-1.2,0.3-2.5,0.5-3.9,0.5c-2.5,0-4.8-0.4-7-1.3c-2.2-0.9-4.1-2.1-5.7-3.7c-1.6-1.6-2.9-3.5-3.9-5.8c-0.9-2.2-1.4-4.7-1.4-7.3
					c0-2.6,0.5-5.1,1.4-7.3c0.9-2.2,2.2-4.2,3.9-5.8c1.6-1.6,3.6-2.8,5.8-3.7c2.2-0.9,4.5-1.3,7-1.3c3.5,0.1,6.7,0.9,9.4,2.5
					s4.9,3.8,6.4,6.6l-5.6,1.5c-1-1.6-2.5-2.9-4.3-3.9c-1.8-0.9-3.8-1.4-5.9-1.4c-1.8,0-3.4,0.3-5,0.9c-1.5,0.6-2.8,1.4-3.9,2.6
					s-1.9,2.5-2.5,4s-0.9,3.2-0.9,5.1c0,1.9,0.3,3.7,1,5.2s1.5,2.9,2.7,4c1.1,1.1,2.5,1.9,4,2.5c1.5,0.6,3.2,0.9,5,0.9
					c1.6,0,3-0.2,4.3-0.6c1.3-0.4,2.4-0.9,3.4-1.6c0.9-0.6,1.7-1.3,2.4-2.1c0.6-0.7,1.1-1.5,1.4-2.2v-2.9H36v-4.5h14.9V93h-4.8
					c0-1.7,0-2.9,0-3.5C46.2,88.9,46.2,88.6,46.1,88.5L46.1,88.5z"/>
				<path class="st1" d="M93.8,58l-0.2,34.9h-5.4V79.7c0-1.6,0-3.1,0-4.6s0.1-2.8,0.1-3.9c0-1.1,0-2,0.1-2.7l0-1h0l-0.3,0.6
					c-0.3,0.4-0.5,0.9-0.8,1.4c-0.3,0.5-0.6,1.1-1,1.7l-0.8,1.5l-6.8,11.7h-2.9l-6.8-11.7c-0.3-0.4-0.5-0.9-0.9-1.5
					c-0.3-0.6-0.7-1.2-1-1.7c-0.3-0.5-0.6-1-0.9-1.4l-0.3-0.6h0l0,1c0,0.7,0,1.6,0,2.7c0,1.1,0,2.4,0.1,3.9c0,1.5,0,3,0,4.6v13.3
					h-5.4V58h5.2l7.9,13.4c0.7,1.2,1.3,2.2,1.8,3c0.4,0.8,0.8,1.4,1,1.8c0.3,0.4,0.4,0.7,0.5,0.9l0.1,0.2h0.1l0.1-0.2
					c0.1-0.1,0.2-0.4,0.5-0.9c0.2-0.4,0.6-1,1-1.8c0.4-0.8,1-1.8,1.7-3L88.7,58H93.8z"/>
				<path class="st1" d="M133.2,58v34.9h-5.5V77.6h-17v15.3h-5.5V58h5.5v14.5h17V58H133.2z"/>
			</g>
		</g>
	</g>
	<g>
		<g>
			<path class="st0" d="M200.8,69.2l-0.3,0c-1.2-1.9-2.8-3.5-4.9-4.6c-2.1-1.1-4.3-1.6-6.8-1.6c-2,0-3.8,0.3-5.5,1
				c-1.7,0.7-3.1,1.6-4.4,2.9c-1.2,1.2-2.2,2.7-2.9,4.5c-0.7,1.7-1,3.6-1,5.7c0,2.1,0.3,4,1,5.7c0.7,1.7,1.7,3.2,2.9,4.5
				c1.2,1.2,2.7,2.2,4.4,2.9c1.7,0.7,3.5,1,5.5,1c2.7,0,5.1-0.6,7.3-1.9c2.2-1.3,3.9-3,5-5.2l4,1.1c-0.7,1.5-1.6,2.9-2.7,4.2
				c-1.1,1.2-2.3,2.3-3.7,3.2c-1.4,0.9-2.9,1.6-4.6,2c-1.6,0.5-3.4,0.7-5.2,0.7c-2.5,0-4.8-0.4-7-1.3c-2.2-0.9-4.1-2.1-5.7-3.7
				c-1.6-1.6-2.9-3.5-3.9-5.8c-0.9-2.2-1.4-4.7-1.4-7.3s0.5-5.1,1.4-7.3c0.9-2.2,2.2-4.2,3.9-5.8c1.6-1.6,3.6-2.8,5.8-3.7
				c2.2-0.9,4.5-1.3,7-1.3c1.7,0,3.3,0.2,4.9,0.6c1.6,0.4,3.1,1,4.4,1.8c1.3,0.8,2.6,1.7,3.7,2.9c1.1,1.1,2,2.4,2.8,3.8L200.8,69.2z
				"/>
			<path class="st0" d="M211.1,77.3c0-2.6,0.5-5.1,1.4-7.3c0.9-2.2,2.2-4.2,3.9-5.8c1.6-1.6,3.6-2.8,5.8-3.7c2.2-0.9,4.5-1.3,7-1.3
				s4.8,0.4,7,1.3c2.2,0.9,4.1,2.1,5.8,3.7c1.6,1.6,2.9,3.5,3.9,5.7c0.9,2.2,1.4,4.7,1.4,7.3s-0.4,5.1-1.4,7.3
				c-0.9,2.2-2.2,4.1-3.9,5.7c-1.6,1.6-3.6,2.8-5.8,3.7c-2.2,0.8-4.5,1.3-7,1.3c-2.5,0-4.8-0.4-7-1.3c-2.2-0.9-4.1-2.1-5.7-3.7
				c-1.6-1.6-2.9-3.5-3.9-5.8c-0.9-2.2-1.4-4.7-1.4-7.3L211.1,77.3z M215.5,77.2c0,2.1,0.3,4,1,5.7c0.7,1.7,1.7,3.2,2.9,4.5
				c1.2,1.2,2.7,2.2,4.4,2.9c1.7,0.7,3.5,1,5.5,1c1.9,0,3.8-0.3,5.5-1c1.7-0.7,3.2-1.6,4.4-2.9c1.2-1.2,2.2-2.7,2.9-4.5
				c0.7-1.7,1-3.7,1-5.8c0-2.1-0.3-4.1-1-5.8c-0.7-1.7-1.7-3.2-2.9-4.5c-1.2-1.2-2.7-2.2-4.4-2.9c-1.7-0.7-3.5-1-5.5-1
				c-2,0-3.8,0.3-5.5,1c-1.7,0.7-3.1,1.6-4.4,2.9c-1.2,1.2-2.2,2.7-2.9,4.5c-0.7,1.7-1,3.7-1,5.8L215.5,77.2z"/>
			<path class="st0" d="M289.2,59.7v35h-4V79.1c0-1.3,0-2.7,0-4.2s0.1-2.8,0.1-4s0-2.2,0-3l0-1.2h0l-0.3,0.5
				c-0.2,0.3-0.4,0.8-0.7,1.3c-0.3,0.5-0.6,1.1-0.9,1.7c-0.3,0.6-0.6,1.1-0.9,1.7l-8.1,14.1h-2.1L263.9,72c-0.3-0.5-0.6-1.1-1-1.7
				c-0.3-0.6-0.7-1.2-1-1.7c-0.3-0.5-0.5-1-0.7-1.3l-0.3-0.5h0l0,1.1c0,0.8,0,1.8,0,3c0,1.2,0,2.5,0.1,4c0,1.4,0,2.8,0,4.2v15.7h-4
				V59.7h3.8l8.7,14.7c0.7,1.2,1.3,2.3,1.8,3.1c0.4,0.8,0.8,1.5,1,2c0.2,0.5,0.4,0.8,0.5,1l0.2,0.3h0l0.1-0.3c0.1-0.2,0.3-0.5,0.5-1
				c0.2-0.5,0.6-1.1,1-2c0.4-0.8,1-1.9,1.8-3.1l8.7-14.7H289.2z"/>
			<path class="st0" d="M333.1,59.7v35h-4V79.1c0-1.3,0-2.7,0-4.2c0-1.4,0.1-2.8,0.1-4s0-2.2,0-3l0-1.2h0l-0.3,0.5
				c-0.2,0.3-0.4,0.8-0.7,1.3c-0.3,0.5-0.6,1.1-0.9,1.7c-0.3,0.6-0.6,1.1-0.9,1.7l-8.1,14.1h-2.1L307.9,72c-0.3-0.5-0.6-1.1-1-1.7
				c-0.3-0.6-0.7-1.2-1-1.7c-0.3-0.5-0.5-1-0.7-1.3l-0.3-0.5h0l0,1.1c0,0.8,0,1.8,0,3c0,1.2,0,2.5,0.1,4c0,1.4,0,2.8,0,4.2v15.7h-4
				V59.7h3.8l8.7,14.7c0.7,1.2,1.3,2.3,1.8,3.1c0.4,0.8,0.8,1.5,1,2c0.2,0.5,0.4,0.8,0.5,1l0.2,0.3h0l0.1-0.3c0.1-0.2,0.3-0.5,0.5-1
				c0.2-0.5,0.6-1.1,1-2c0.4-0.8,1-1.9,1.8-3.1l8.7-14.7H333.1z"/>
			<path class="st0" d="M372.6,59.7l0,20.4c0,4.9-1.2,8.7-3.7,11.3c-2.5,2.6-6,3.8-10.6,3.8c-4.6,0-8.1-1.2-10.6-3.8
				c-2.5-2.6-3.7-6.4-3.7-11.3V59.7h4.1v20.5c0,7.5,3.4,11.3,10.2,11.3c6.8,0,10.3-3.8,10.3-11.3V59.7H372.6z"/>
			<path class="st0" d="M412,59.7v34.9h-3.8l-15.5-20.8c-0.7-1-1.4-2-2.1-2.9c-0.6-0.9-1.2-1.7-1.6-2.3c-0.4-0.6-0.8-1.1-1-1.5
				l-0.4-0.6h0v0.7c0,0.5,0,1.2,0,2.1c0,0.9,0,1.9,0,3.1s0,2.5,0,3.9v18.3h-4.1V59.7h3.8l15.5,20.8c0.6,0.9,1.3,1.7,1.9,2.6
				c0.6,0.8,1.1,1.6,1.6,2.3c0.5,0.7,0.9,1.2,1.2,1.6l0.4,0.6h0v-0.8c0-0.5,0-1.2,0-2.1c0-0.9,0-1.9,0-3.1s0-2.3,0-3.6V59.7H412z"/>
			<path class="st0" d="M423.8,94.6V59.7h4.1v34.9H423.8z"/>
			<path class="st0" d="M463.5,59.7v3.8h-11.7v31h-4v-31h-11.7v-3.8H463.5z"/>
			<path class="st0" d="M471.7,94.6V59.7h4.1v34.9H471.7z"/>
			<path class="st0" d="M511.1,90.8v3.8h-23.6V59.7h23.3v3.8h-19.2v10.8H507V78h-15.4v12.8H511.1z"/>
			<path class="st0" d="M540.1,69.4l-0.5,0.2c-0.2-1-0.5-2-1-2.8c-0.5-0.8-1.1-1.5-1.9-2.1c-0.8-0.6-1.6-1-2.6-1.3
				c-0.9-0.3-2-0.4-3.1-0.4c-2.3,0-4.2,0.5-5.6,1.5c-1.4,1-2.2,2.4-2.2,4.1c0,0.9,0.3,1.7,0.8,2.4c0.5,0.6,1.3,1.2,2.2,1.6
				s1.9,0.8,3,1.2c1.1,0.3,2.3,0.7,3.4,1c1.2,0.3,2.5,0.8,3.9,1.3c1.3,0.5,2.6,1.1,3.7,1.9c1.1,0.8,2.1,1.7,2.8,2.9
				c0.7,1.1,1.1,2.6,1.1,4.3c0,1.4-0.3,2.8-0.9,4c-0.6,1.2-1.4,2.3-2.5,3.2c-1.1,0.9-2.4,1.6-4,2.1c-1.5,0.4-3.3,0.7-5.2,0.7
				c-1.8,0-3.5-0.2-5.1-0.7c-1.5-0.5-2.8-1.2-3.9-2.1c-1.1-0.9-2-2-2.7-3.2c-0.7-1.2-1.2-2.6-1.5-4l3.9-1c0.1,1,0.4,1.9,0.9,2.9
				c0.4,0.9,1.1,1.7,1.9,2.4c0.8,0.7,1.7,1.2,2.8,1.6c1.1,0.4,2.4,0.6,3.8,0.6c2.6,0,4.6-0.6,6.1-1.8c1.5-1.2,2.2-2.7,2.2-4.6
				c0-1.2-0.3-2.3-1-3.1c-0.7-0.8-1.5-1.5-2.6-2c-1-0.5-2.2-1-3.5-1.3c-1.3-0.3-2.5-0.7-3.8-1.1c-1-0.3-2-0.6-3.2-1.1
				c-1.1-0.4-2.2-1-3.2-1.6c-1-0.6-1.8-1.5-2.4-2.5c-0.6-1-0.9-2.3-0.9-3.8c0-1.3,0.3-2.6,0.9-3.7c0.6-1.1,1.4-2.1,2.5-3
				c1-0.8,2.3-1.5,3.8-2c1.5-0.5,3.1-0.7,4.9-0.7c1.6,0,3.1,0.2,4.5,0.6c1.4,0.4,2.6,1.1,3.7,1.9c1.1,0.8,2,1.8,2.7,2.9
				c0.7,1.1,1.2,2.4,1.5,3.8L540.1,69.4z"/>
		</g>
	</g>
</g>
<g>
	<path class="st0" d="M546.8,46v1h-2v5.1h-1.2V47h-2v-1H546.8z M553.5,52.1l-0.2-3.6c0-0.5,0-1.1,0-1.7h-0.1
		c-0.2,0.5-0.3,1.3-0.5,1.8l-1.1,3.4h-1.3l-1.1-3.5c-0.1-0.5-0.3-1.2-0.4-1.7h-0.1c0,0.6,0,1.2,0,1.7l-0.2,3.6h-1.2l0.5-6.2h1.8
		l1.1,3c0.1,0.5,0.3,0.9,0.4,1.6h0c0.2-0.6,0.3-1.1,0.4-1.5l1.1-3h1.8l0.5,6.2H553.5z"/>
</g>
</svg>
